<svg version="1.2" xmlns="http://www.w3.org/2000/svg" viewBox="0 0 322 250" width="322" height="250">
	<title>9713006_4223887-ai</title>
	<defs>
		<linearGradient id="g1" x2="1" gradientUnits="userSpaceOnUse" gradientTransform="matrix(184.604,115.501,-114.108,182.378,90.356,-96.648)">
			<stop offset="0" stop-color="#0a4ae0"/>
			<stop offset="1" stop-color="#22f4ff"/>
		</linearGradient>
		<linearGradient id="g2" x2="1" gradientUnits="userSpaceOnUse" gradientTransform="matrix(-469.015,-322.01,355.948,-518.446,293.954,396.922)">
			<stop offset="0" stop-color="#22f4ff"/>
			<stop offset="1" stop-color="#0a4ae0"/>
		</linearGradient>
		<linearGradient id="g3" x2="1" gradientUnits="userSpaceOnUse" gradientTransform="matrix(-218.959,-117.511,139.571,-260.065,223.698,324.932)">
			<stop offset="0" stop-color="#22f4ff"/>
			<stop offset="1" stop-color="#0a4ae0"/>
		</linearGradient>
		<linearGradient id="g4" x2="1" gradientUnits="userSpaceOnUse" gradientTransform="matrix(-14.4,23.966,-20.029,-12.035,253.886,144.366)">
			<stop offset="0" stop-color="#0a4ae0" stop-opacity="0"/>
			<stop offset="1" stop-color="#0a4ae0" stop-opacity="1"/>
		</linearGradient>
		<linearGradient id="g5" x2="1" gradientUnits="userSpaceOnUse" gradientTransform="matrix(97.541,58.26,-24.891,41.674,101.827,89.779)">
			<stop offset="0" stop-color="#0a4ae0"/>
			<stop offset="1" stop-color="#22f4ff"/>
		</linearGradient>
		<linearGradient id="g6" x2="1" gradientUnits="userSpaceOnUse" gradientTransform="matrix(-87.752,88.229,-25.82,-25.68,309.501,40.019)">
			<stop offset="0" stop-color="#0a4ae0"/>
			<stop offset="1" stop-color="#22f4ff"/>
		</linearGradient>
		<linearGradient id="g7" x2="1" gradientUnits="userSpaceOnUse" gradientTransform="matrix(174.741,119.686,-113.714,166.022,530.972,-36.849)">
			<stop offset="0" stop-color="#0a4ae0"/>
			<stop offset="1" stop-color="#22f4ff"/>
		</linearGradient>
		<linearGradient id="g8" x2="1" gradientUnits="userSpaceOnUse" gradientTransform="matrix(0,-117.214,151.023,0,537.391,238.833)">
			<stop offset="0" stop-color="#0a4ae0"/>
			<stop offset="1" stop-color="#22f4ff"/>
		</linearGradient>
		<linearGradient id="g9" x2="1" gradientUnits="userSpaceOnUse" gradientTransform="matrix(0,-165.779,256.374,0,542.512,252.188)">
			<stop offset="0" stop-color="#0a4ae0"/>
			<stop offset="1" stop-color="#22f4ff"/>
		</linearGradient>
		<linearGradient id="g10" x2="1" gradientUnits="userSpaceOnUse" gradientTransform="matrix(-66.721,-37.556,13.34,-23.7,569.937,177.449)">
			<stop offset="0" stop-color="#0a4ae0" stop-opacity="0"/>
			<stop offset="1" stop-color="#0a4ae0" stop-opacity="1"/>
		</linearGradient>
		<linearGradient id="g11" x2="1" gradientUnits="userSpaceOnUse" gradientTransform="matrix(66.721,-37.556,13.34,23.7,642.063,177.449)">
			<stop offset="0" stop-color="#0a4ae0" stop-opacity="0"/>
			<stop offset="1" stop-color="#0a4ae0" stop-opacity="1"/>
		</linearGradient>
		<linearGradient id="g12" x2="1" gradientUnits="userSpaceOnUse" gradientTransform="matrix(0,-117.214,34.133,0,191.168,238.834)">
			<stop offset="0" stop-color="#0a4ae0" stop-opacity="0"/>
			<stop offset="1" stop-color="#0a4ae0" stop-opacity="1"/>
		</linearGradient>
		<linearGradient id="g13" x2="1" gradientUnits="userSpaceOnUse" gradientTransform="matrix(0,-117.214,34.133,0,1020.832,238.834)">
			<stop offset="0" stop-color="#0a4ae0" stop-opacity="0"/>
			<stop offset="1" stop-color="#0a4ae0" stop-opacity="1"/>
		</linearGradient>
		<linearGradient id="g14" x2="1" gradientUnits="userSpaceOnUse" gradientTransform="matrix(0,176,0,0,0,-176)">
			<stop offset="0" stop-color="#0a24e0"/>
			<stop offset="1" stop-color="#22f4ff"/>
		</linearGradient>
		<linearGradient id="g15" x2="1" gradientUnits="userSpaceOnUse" gradientTransform="matrix(0,176,0,0,0,-176)">
			<stop offset="0" stop-color="#0a24e0"/>
			<stop offset="1" stop-color="#22f4ff"/>
		</linearGradient>
		<linearGradient id="g16" x2="1" gradientUnits="userSpaceOnUse" gradientTransform="matrix(0,176,0,0,NaN,NaN)">
			<stop offset="0" stop-color="#0a24e0"/>
			<stop offset="1" stop-color="#22f4ff"/>
		</linearGradient>
		<linearGradient id="g17" x2="1" gradientUnits="userSpaceOnUse" gradientTransform="matrix(0,176,0,0,NaN,NaN)">
			<stop offset="0" stop-color="#0a24e0"/>
			<stop offset="1" stop-color="#22f4ff"/>
		</linearGradient>
		<linearGradient id="g18" x2="1" gradientUnits="userSpaceOnUse" gradientTransform="matrix(0,-187.826,221.406,0,244.951,673.425)">
			<stop offset="0" stop-color="#22f4ff"/>
			<stop offset="1" stop-color="#0a4ae0"/>
		</linearGradient>
		<linearGradient id="g19" x2="1" gradientUnits="userSpaceOnUse" gradientTransform="matrix(0,-76.446,151.841,0,146.564,533.766)">
			<stop offset="0" stop-color="#22f4ff"/>
			<stop offset="1" stop-color="#0a24e0"/>
		</linearGradient>
		<linearGradient id="g20" x2="1" gradientUnits="userSpaceOnUse" gradientTransform="matrix(0,-33.626,66.638,0,156.49,471.23)">
			<stop offset="0" stop-color="#22f4ff"/>
			<stop offset="1" stop-color="#0a24e0"/>
		</linearGradient>
		<linearGradient id="g21" x2="1" gradientUnits="userSpaceOnUse" gradientTransform="matrix(0,-306.15,306.15,0,12.207,732.356)">
			<stop offset="0" stop-color="#0a4ae0"/>
			<stop offset="1" stop-color="#22f4ff"/>
		</linearGradient>
		<linearGradient id="g22" x2="1" gradientUnits="userSpaceOnUse" gradientTransform="matrix(0,176,0,0,NaN,NaN)">
			<stop offset="0" stop-color="#0a24e0"/>
			<stop offset="1" stop-color="#22f4ff"/>
		</linearGradient>
		<linearGradient id="g23" x2="1" gradientUnits="userSpaceOnUse" gradientTransform="matrix(0,176,0,0,NaN,NaN)">
			<stop offset="0" stop-color="#0a24e0"/>
			<stop offset="1" stop-color="#22f4ff"/>
		</linearGradient>
		<linearGradient id="g24" x2="1" gradientUnits="userSpaceOnUse" gradientTransform="matrix(0,176,0,0,NaN,NaN)">
			<stop offset="0" stop-color="#0a24e0"/>
			<stop offset="1" stop-color="#22f4ff"/>
		</linearGradient>
		<linearGradient id="g25" x2="1" gradientUnits="userSpaceOnUse" gradientTransform="matrix(0,176,0,0,0,-176)">
			<stop offset="0" stop-color="#0a24e0"/>
			<stop offset="1" stop-color="#22f4ff"/>
		</linearGradient>
		<linearGradient id="g26" x2="1" gradientUnits="userSpaceOnUse" gradientTransform="matrix(0,176,0,0,NaN,NaN)">
			<stop offset="0" stop-color="#0a24e0"/>
			<stop offset="1" stop-color="#22f4ff"/>
		</linearGradient>
		<linearGradient id="g27" x2="1" gradientUnits="userSpaceOnUse" gradientTransform="matrix(0,176,0,0,NaN,NaN)">
			<stop offset="0" stop-color="#0a24e0"/>
			<stop offset="1" stop-color="#22f4ff"/>
		</linearGradient>
		<linearGradient id="g28" x2="1" gradientUnits="userSpaceOnUse" gradientTransform="matrix(0,176,0,0,NaN,NaN)">
			<stop offset="0" stop-color="#0a24e0"/>
			<stop offset="1" stop-color="#22f4ff"/>
		</linearGradient>
		<linearGradient id="g29" x2="1" gradientUnits="userSpaceOnUse" gradientTransform="matrix(0,-183.103,78.047,0,432.811,726.259)">
			<stop offset="0" stop-color="#0a4ae0"/>
			<stop offset="1" stop-color="#22f4ff"/>
		</linearGradient>
		<linearGradient id="g30" x2="1" gradientUnits="userSpaceOnUse" gradientTransform="matrix(0,-183.103,78.047,0,784.332,726.259)">
			<stop offset="0" stop-color="#0a4ae0"/>
			<stop offset="1" stop-color="#22f4ff"/>
		</linearGradient>
		<linearGradient id="g31" x2="1" gradientUnits="userSpaceOnUse" gradientTransform="matrix(0,-306.15,306.15,0,455.496,732.356)">
			<stop offset="0" stop-color="#0a4ae0"/>
			<stop offset="1" stop-color="#22f4ff"/>
		</linearGradient>
	</defs>
	<style>
		tspan { white-space:pre } 
		.s0 { fill: url(#g1) } 
		.s1 { fill: url(#g2) } 
		.s2 { fill: url(#g3) } 
		.s3 { fill: url(#g4) } 
		.s4 { fill: url(#g5) } 
		.s5 { fill: url(#g6) } 
		.t6 { font-size: 9px;fill: #ffffff;font-weight: 300;font-family: "Montserrat-Light", "Montserrat" } 
		.s7 { fill: url(#g7) } 
		.s8 { fill: url(#g8) } 
		.s9 { fill: url(#g9) } 
		.s10 { fill: url(#g10) } 
		.s11 { fill: url(#g11) } 
		.s12 { fill: url(#g12) } 
		.s13 { fill: url(#g13) } 
		.t14 { font-size: 15px;fill: #ffffff;font-weight: 600;font-family: "Montserrat-SemiBold", "Montserrat" } 
		.s15 { fill: none;stroke: url(#g14);stroke-miterlimit:10;stroke-width: 14 } 
		.s16 { fill: none;stroke: url(#g15);stroke-miterlimit:10;stroke-width: 14 } 
		.s17 { fill: none;stroke: url(#g16);stroke-miterlimit:10;stroke-width: 14 } 
		.s18 { fill: none;stroke: url(#g17);stroke-miterlimit:10;stroke-width: 14 } 
		.s19 { fill: none;stroke: url(#g18);stroke-linecap: round;stroke-linejoin: round;stroke-width: 14 } 
		.s20 { fill: none;stroke: url(#g19);stroke-linecap: round;stroke-linejoin: round;stroke-width: 14 } 
		.s21 { fill: none;stroke: url(#g20);stroke-linecap: round;stroke-linejoin: round;stroke-width: 14 } 
		.s22 { fill: url(#g21) } 
		.s23 { fill: none;stroke: url(#g22);stroke-miterlimit:10;stroke-width: 14 } 
		.s24 { fill: none;stroke: url(#g23);stroke-miterlimit:10;stroke-width: 14 } 
		.s25 { fill: none;stroke: url(#g24);stroke-miterlimit:10;stroke-width: 14 } 
		.s26 { fill: none;stroke: url(#g25);stroke-miterlimit:10;stroke-width: 14 } 
		.s27 { fill: none;stroke: url(#g26);stroke-miterlimit:10;stroke-width: 14 } 
		.s28 { fill: none;stroke: url(#g27);stroke-miterlimit:10;stroke-width: 14 } 
		.s29 { fill: none;stroke: url(#g28);stroke-miterlimit:10;stroke-width: 14 } 
		.s30 { fill: none;stroke: url(#g29);stroke-miterlimit:10;stroke-width: 14 } 
		.s31 { fill: none;stroke: url(#g30);stroke-miterlimit:10;stroke-width: 14 } 
		.s32 { fill: url(#g31) } 
	</style>
	<g id="BACKGROUND">
		<g id="BACKGROUND 2 ">
			<g id="&lt;Group&gt;">
				<g id="&lt;Group&gt;">
				</g>
			</g>
		</g>
	</g>
	<g id="OBJECTS">
		<g id="&lt;Group&gt;">
			<g id="&lt;Group&gt;">
				<path id="&lt;Path&gt;" class="s0" d="m315.4 121.3c0 46.7-21.1 88.5-54.2 116.3-6.3 5.3-15.9 0.9-15.9-7.3v-112.7c0-6.5-7.9-9.8-12.5-5.2l-60.6 61.2c-5.1 5.1-13 6.1-19.2 2.4l-58.8-34.8c-5.5-3.2-12.4 0.8-12.4 7.1v82c0 8.2-9.6 12.6-15.9 7.3-33.1-27.8-54.2-69.6-54.2-116.3 0-32.2 10-62 27-86.5 4.1-5.8 11.9-7.5 18-3.9l96.3 57c6.2 3.7 14.1 2.7 19.2-2.5l75.1-75.7c5.1-5.1 13.3-5.4 18.6-0.6 30.4 27.8 49.5 67.8 49.5 112.2z"/>
				<path id="&lt;Path&gt;" class="s1" d="m315.4 121.3c0 46.7-21.1 88.4-54.2 116.3-6.3 5.3-15.9 0.9-15.9-7.3v-112.7c0-6.5-7.9-9.8-12.5-5.1l-7.1 7.2q-0.1 0-0.2 0.1c-7.1 7-16.8 1.1-16.8 1.1l-55.6-32.9c6.2 3.6 14 2.5 19.1-2.6l75.1-75.7c5.1-5.1 13.3-5.4 18.6-0.5 30.4 27.7 49.5 67.7 49.5 112.1z"/>
				<path id="&lt;Path&gt;" class="s2" d="m315.4 121.3c0 46.7-21.1 88.4-54.2 116.3-6.3 5.3-15.9 0.9-15.9-7.3v-112.7c0-6.5-7.9-9.8-12.5-5.1l-7.1 7.2q-0.1 0-0.2 0.1c-7.1 6.9-16.8 1.1-16.8 1.1l-55.6-32.9c6.2 3.6 14 2.5 19.1-2.6l73.1-73.7 2-2c5.1-5.1 13.3-5.4 18.6-0.6 30.4 27.8 49.5 67.8 49.5 112.2z"/>
				<path id="&lt;Path&gt;" class="s3" d="m245.3 11.7v105.9c0-6.5-7.9-9.8-12.5-5.1l-7.1 7.2q-0.1 0-0.2 0.1c-7.1 6.9-16.8 1.1-16.8 1.1l-55.6-32.9c6.2 3.6 14 2.5 19.1-2.6z"/>
				<path id="&lt;Path&gt;" class="s4" d="m187.7 157.9l-15.5 15.7c-5.1 5.1-13 6.1-19.2 2.5l-58.8-34.9c-5.5-3.2-12.4 0.8-12.4 7.1v-21.1c0-6.2 6.6-10 11.9-6.8l67.7 40c0 0 15.1 8.6 26.3-2.5z"/>
				<path id="&lt;Path&gt;" class="s5" d="m276.7 20c-0.7-0.4-8.9-5.4-16.5 2.2l-68.9 69.6c0 0-11.4 12-21.8 5.9q-0.2-0.1-0.3-0.2l-16.1-9.5c6.2 3.6 14 2.5 19.1-2.6l75.1-75.7c5.1-5.1 13.3-5.4 18.6-0.5q5.7 5.1 10.8 10.8z"/>
			</g>
			<g id="&lt;Group&gt;">
				<text id="SLOGAN HERE
" style="transform: matrix(2,0,0,2,160.95,328.364)" >
					<tspan x="-45.2" y="0" class="t6" dx="0 3 3 3 3 3 3 3 3 3 3 3" >SLOGAN HERE
</tspan>
				</text>
			</g>
		</g>
		<g id="&lt;Group&gt;">
			<g id="&lt;Group&gt;">
				<path id="&lt;Path&gt;" class="s7" d="m719.9 66.4v155.2q-7 8-15.1 14.9c-4.9 4.2-12.5 0.7-12.5-5.8v-111.4c0-6-6.5-9.7-11.6-6.7l-67.9 40.2c-4.2 2.5-9.4 2.5-13.6 0l-67.9-40.2c-5.1-3-11.6 0.7-11.6 6.7v111.4c0 6.5-7.6 10-12.5 5.8q-8.1-6.9-15.1-14.9v-155.2c0-1.8 0.9-3.4 2.4-4.2 1.6-0.9 3.4-0.9 4.9 0l98.5 58.4c5 2.9 11.2 2.9 16.2 0l98.5-58.4c1.5-0.9 3.3-0.9 4.9 0 1.5 0.8 2.4 2.4 2.4 4.2z"/>
				<path id="&lt;Path&gt;" class="s8" d="m719.9 66.4v155.2q-7 8-15.1 14.9c-4.9 4.2-12.5 0.7-12.5-5.8v-111.4c0-6-6.5-9.7-11.6-6.7l-67.9 40.2c-2.1 1.3-4.5 1.9-6.8 1.9-2.3 0-4.7-0.6-6.8-1.9l-67.9-40.2c-5.1-3-11.6 0.7-11.6 6.7v111.4c0 6.5-7.6 10-12.5 5.8q-8.1-6.9-15.1-14.9v-155.2c0-1.8 0.9-3.4 2.4-4.2 1.6-0.9 3.4-0.9 4.9 0l31.8 18.8q0.5 0.3 1 0.6l65.7 39c2.5 1.5 5.3 2.2 8.1 2.2 2.8 0 5.6-0.7 8.1-2.2l98.5-58.4c1.5-0.9 3.3-0.9 4.9 0 1.5 0.8 2.4 2.4 2.4 4.2z"/>
				<path id="&lt;Path&gt;" class="s9" d="m727 213v-146.6c0-4.3-2.3-8.2-6-10.4-3.8-2.1-8.3-2.1-12 0.1l-98.5 58.4c-2.8 1.6-6.2 1.6-9 0l-98.5-58.4c-3.7-2.2-8.2-2.2-12-0.1-3.7 2.2-6 6.1-6 10.4v146.6c-19.3-25.5-30.8-57.3-30.8-91.8 0-38.2 14.1-73.1 37.3-99.8 4.4-5 11.8-6.2 17.5-2.8l90.2 53.4c4.2 2.5 9.4 2.5 13.6 0l90.2-53.4c5.7-3.4 13.1-2.2 17.5 2.8 23.2 26.7 37.3 61.6 37.3 99.8 0 34.5-11.5 66.3-30.8 91.8z"/>
				<path id="&lt;Path&gt;" class="s10" d="m606 122.8v31.9c-2.3 0-4.7-0.6-6.8-1.9l-67.9-40.2c-5.1-3-11.6 0.7-11.6 6.7v-35.2c0-3.1 2.8-5.7 5.9-5.2 1.5 0.3 3.3 0.9 5.6 2.1q0.5 0.3 1 0.6l65.7 39c2.5 1.5 5.3 2.2 8.1 2.2z"/>
				<path id="&lt;Path&gt;" class="s11" d="m606 122.8v31.9c2.3 0 4.7-0.6 6.8-1.9l67.9-40.2c5.1-3 11.6 0.7 11.6 6.7v-35.2c0-3.1-2.8-5.7-5.9-5.2-1.5 0.3-3.3 0.9-5.6 2.1q-0.5 0.3-1 0.6l-65.7 39c-2.5 1.5-5.3 2.2-8.1 2.2z"/>
				<path id="&lt;Path&gt;" class="s12" d="m502.9 56.1c-3.9-2.3-8.5-2.2-12.3 0.2-3.6 2.3-5.6 6.3-5.6 10.6v146.1c-19.3-25.5-30.8-57.3-30.8-91.8 0-23.5 5.3-45.9 14.9-65.7q0.1-0.5 0.4-0.8 0.3-0.7 0.7-1.4c2.3-4.1 5.2-6.1 7.9-7.1 3.5-1.1 7.3-0.5 10.4 1.4z"/>
				<path id="&lt;Path&gt;" class="s13" d="m709.1 56.1c3.9-2.3 8.5-2.2 12.3 0.2 3.6 2.3 5.6 6.3 5.6 10.6v146.1c19.3-25.5 30.8-57.3 30.8-91.8 0-23.5-5.3-45.9-14.9-65.7q-0.1-0.5-0.4-0.8-0.3-0.7-0.7-1.4c-2.3-4.1-5.2-6.1-7.9-7.1-3.5-1.1-7.3-0.5-10.4 1.4z"/>
			</g>
			<g id="&lt;Group&gt;">
				<text id="COMPANY LOGO
" style="transform: matrix(2,0,0,2,603.824,300.792)" >
					<tspan x="-71.3" y="0" class="t14" dx="0 1 1 1 1 1 1 1 1 1 1 1 1" >COMPANY LOGO
</tspan>
				</text>
				<text id="SLOGAN HERE
" style="transform: matrix(2,0,0,2,603.402,327.832)" >
					<tspan x="-45.2" y="0" class="t6" dx="0 3 3 3 3 3 3 3 3 3 3 3" >SLOGAN HERE
</tspan>
				</text>
			</g>
		</g>
		<g id="&lt;Group&gt;">
			<g id="&lt;Group&gt;">
				<g id="&lt;Group&gt;">
					<path id="&lt;Path&gt;" class="s15" d="m98.9 449.6v260.8"/>
					<path id="&lt;Path&gt;" class="s16" d="m143.1 434.3v286.9"/>
					<path id="&lt;Path&gt;" class="s17" d="m187.4 434.3v286.9"/>
					<path id="&lt;Path&gt;" class="s18" d="m231.7 449.6v260.8"/>
				</g>
				<path id="&lt;Path&gt;" class="s19" d="m276 673.4v-187.8l-110.7 110.7-110.7-110.7v187.8"/>
				<path id="&lt;Path&gt;" class="s20" d="m89.9 458.4l75.4 75.4 76.4-76.5"/>
				<path id="&lt;Path&gt;" class="s21" d="m131.7 437.6l33.6 33.6 33-33"/>
				<g id="&lt;Group&gt;">
					<path id="&lt;Compound Path&gt;" fill-rule="evenodd" class="s22" d="m318.4 579.3c0 84.5-68.6 153.1-153.1 153.1-84.6 0-153.1-68.6-153.1-153.1 0-84.6 68.5-153.1 153.1-153.1 84.5 0 153.1 68.5 153.1 153.1zm-292.2 0c0 76.7 62.4 139.1 139.1 139.1 76.7 0 139.1-62.4 139.1-139.1 0-76.7-62.4-139.1-139.1-139.1-76.7 0-139.1 62.4-139.1 139.1z"/>
				</g>
			</g>
			<g id="&lt;Group&gt;">
				<text id="COMPANY LOGO
" style="transform: matrix(2,0,0,2,161.373,788.389)" >
					<tspan x="-71.3" y="0" class="t14" dx="0 1 1 1 1 1 1 1 1 1 1 1 1" >COMPANY LOGO
</tspan>
				</text>
				<text id="SLOGAN HERE
" style="transform: matrix(2,0,0,2,160.95,815.961)" >
					<tspan x="-45.2" y="0" class="t6" dx="0 3 3 3 3 3 3 3 3 3 3 3" >SLOGAN HERE
</tspan>
				</text>
			</g>
		</g>
		<g id="&lt;Group&gt;">
			<g id="&lt;Group&gt;">
				<text id="COMPANY LOGO
" style="transform: matrix(2,0,0,2,603.614,788.389)" >
					<tspan x="-71.3" y="0" class="t14" dx="0 1 1 1 1 1 1 1 1 1 1 1 1" >COMPANY LOGO
</tspan>
				</text>
				<text id="SLOGAN HERE
" style="transform: matrix(2,0,0,2,603.19,815.961)" >
					<tspan x="-45.2" y="0" class="t6" dx="0 3 3 3 3 3 3 3 3 3 3 3" >SLOGAN HERE
</tspan>
				</text>
			</g>
			<g id="&lt;Group&gt;">
				<path id="&lt;Path&gt;" class="s23" d="m608.6 434.3v132"/>
				<path id="&lt;Path&gt;" class="s24" d="m569.5 442.9v100.3"/>
				<path id="&lt;Path&gt;" class="s25" d="m530.5 455.9v123.8"/>
				<path id="&lt;Path&gt;" class="s26" d="m491.5 489.9v179.5"/>
				<path id="&lt;Path&gt;" class="s27" d="m647.6 442.9v100.3"/>
				<path id="&lt;Path&gt;" class="s28" d="m686.6 455.9v123.8"/>
				<path id="&lt;Path&gt;" class="s29" d="m725.6 489.9v179.5"/>
				<path id="&lt;Path&gt;" class="s30" d="m686.6 703.9v-121.7c0-21.6-17.5-39-39-39-21.6 0-39 17.4-39 39v144.1"/>
				<path id="&lt;Path&gt;" class="s31" d="m530.5 703.9v-121.7c0-21.6 17.5-39 39-39 21.6 0 39.1 17.4 39.1 39v144.1"/>
				<g id="&lt;Group&gt;">
					<path id="&lt;Compound Path&gt;" fill-rule="evenodd" class="s32" d="m761.6 579.3c0 84.5-68.5 153.1-153 153.1-84.6 0-153.1-68.6-153.1-153.1 0-84.6 68.5-153.1 153.1-153.1 84.5 0 153 68.5 153 153.1zm-292.1 0c0 76.7 62.4 139.1 139.1 139.1 76.7 0 139-62.4 139-139.1 0-76.7-62.3-139.1-139-139.1-76.7 0-139.1 62.4-139.1 139.1z"/>
				</g>
			</g>
		</g>
	</g>
</svg>